PathFileType	4	(X/Y/Z)	T:\Spectrum_Optical_Capture\Spectrum_Demo_10_05_01_TRUECOMBAT\07_Smooth_Trc\TC_Stairs_1.trc
DataRate	CameraRate	NumFrames	NumMarkers	Units	OrigDataRate	OrigDataStartFrame	OrigNumFrames
60.0	60.0	       7	46	mm	60.0	538	       716
Frame#	Time	HeadTop			ForeHead			LFrontHead			RFrontHead			TopSpine			Sternum			Scapula			LFShoulder			LShoulder			LBicep			LOuterElbow			LHand			LWristPinky			LWristThumb			RFShoulder			RShoulder			RBicep			ROuterElbow			RHand			RWristPinky			RWristThumb			MiddleBack			LowerBack			Root			Pelvis			LBackWaist			RBackWaist			LFrontWaist			RFrontWaist			Bellymarker			LThigh			LOuterKnee			LAnkle			LHeel			LOuterMeta			LToe			RThigh			ROuterKnee			RAnkle			RHeel			ROuterMeta			RToe			Floor1			Floor2			Floor3			Floor4			
		X1	Y1	Z1	X2	Y2	Z2	X3	Y3	Z3	X4	Y4	Z4	X5	Y5	Z5	X6	Y6	Z6	X7	Y7	Z7	X8	Y8	Z8	X9	Y9	Z9	X10	Y10	Z10	X11	Y11	Z11	X12	Y12	Z12	X13	Y13	Z13	X14	Y14	Z14	X15	Y15	Z15	X16	Y16	Z16	X17	Y17	Z17	X18	Y18	Z18	X19	Y19	Z19	X20	Y20	Z20	X21	Y21	Z21	X22	Y22	Z22	X23	Y23	Z23	X24	Y24	Z24	X25	Y25	Z25	X26	Y26	Z26	X27	Y27	Z27	X28	Y28	Z28	X29	Y29	Z29	X30	Y30	Z30	X31	Y31	Z31	X32	Y32	Z32	X33	Y33	Z33	X34	Y34	Z34	X35	Y35	Z35	X36	Y36	Z36	X37	Y37	Z37	X38	Y38	Z38	X39	Y39	Z39	X40	Y40	Z40	X41	Y41	Z41	X42	Y42	Z42	X43	Y43	Z43	X44	Y44	Z44	X45	Y45	Z45	X46	Y46	Z46	

538	8.950	380.29193	2309.25879	-1638.00891	390.61298	2146.79858	-1592.49854	288.13672	2201.30420	-1559.89075	473.21008	2208.92212	-1549.93982	356.54990	2241.93262	-1281.55200	359.60153	1931.67346	-1375.48889	458.76968	2145.39282	-1166.68762	285.86386	2063.09644	-1422.13782	176.39821	2209.90039	-1400.76550	51.64093	2085.37573	-1272.30688	48.91621	2066.02759	-1136.19067	43.88896	1862.99988	-1294.36768	49.19501	1798.09448	-1336.92871	120.00751	1825.56274	-1406.06860	439.12143	2053.33765	-1398.52856	556.58307	2176.61377	-1355.84302	600.05164	2075.74878	-1197.00623	577.78271	1950.59241	-1084.67590	610.86963	1830.31494	-1296.40894	598.93365	1757.33618	-1342.30493	621.82697	1809.57483	-1424.07300	339.91287	2178.70508	-1209.62610	319.67050	2062.98486	-1130.47351	311.95767	1942.74548	-1071.19128	179.10860	1960.02600	-1143.05420	174.42093	1829.71240	-1070.47131	455.01254	1845.74683	-1036.57983	170.85649	1797.20190	-1209.96826	500.29230	1824.46863	-1173.25049	349.88287	1785.33691	-1288.70313	142.29004	1551.21399	-1176.96094	158.35655	1405.54272	-1262.72925	209.54799	1051.84326	-1166.07959	294.07523	998.21686	-1083.15002	202.54311	979.70233	-1205.82300	244.57660	948.66016	-1330.97937	556.31519	1666.66064	-1257.52722	556.90338	1514.63171	-1328.41370	480.27615	1189.16235	-1263.93640	373.93393	1149.63989	-1206.34705	494.38196	1067.91846	-1278.04456	474.65811	1024.07324	-1394.10400	4200.88477	33.09582	-4241.24463	-3735.31396	-12.53599	-4194.61865	-3781.80591	-15.79794	4946.49805	4162.95410	20.78529	4908.38818	
539	8.967	377.24966	2290.84814	-1651.23218	388.19141	2128.86182	-1604.50378	285.63135	2183.23560	-1572.16016	470.53568	2191.52612	-1562.59167	354.52408	2226.56567	-1294.28271	358.66867	1914.99097	-1386.60474	458.71460	2131.31299	-1179.22449	284.06870	2045.84802	-1432.96399	172.87192	2191.41748	-1411.95422	52.84310	2058.64478	-1284.71350	50.79903	2036.97363	-1148.71130	49.45096	1833.77051	-1307.90637	55.11422	1769.43347	-1350.09180	123.81950	1797.61536	-1421.16260	437.54919	2037.59949	-1410.36426	554.28387	2161.86816	-1369.38953	600.04443	2062.64453	-1210.13831	580.42102	1938.37048	-1096.70007	609.89221	1814.12268	-1306.45471	597.32391	1740.24036	-1350.46191	619.81866	1790.64941	-1433.72327	338.86264	2163.72559	-1221.90564	322.36234	2048.00195	-1141.19165	317.18134	1926.93323	-1082.16211	181.95253	1945.63855	-1150.90076	179.02820	1816.59399	-1078.70630	459.57053	1826.69006	-1050.20361	171.54001	1785.78760	-1218.14172	502.43582	1804.85352	-1187.87732	349.05798	1770.26172	-1300.31897	141.26331	1541.04626	-1192.78296	156.10104	1396.78101	-1282.14587	209.32146	1053.67590	-1171.19348	295.94894	1001.60608	-1085.47546	202.37863	981.40222	-1206.86865	242.58174	946.88855	-1332.32312	555.91376	1638.26611	-1264.92456	554.29333	1482.25977	-1328.25476	485.26160	1138.12793	-1290.92310	380.23376	1094.36841	-1240.62549	501.65689	1014.10797	-1314.16699	484.08252	977.44879	-1433.88708	4200.88818	33.03650	-4241.23535	-3735.33105	-12.54552	-4194.57129	-3781.72339	-15.75028	4946.36523	4162.95313	20.84757	4908.43213	
540	8.983	374.39432	2274.00391	-1664.04810	385.84818	2112.32910	-1616.46289	283.33578	2166.79468	-1584.03223	468.19888	2175.57251	-1575.04736	353.07510	2212.13110	-1306.47034	358.60590	1900.58789	-1398.56213	458.89639	2118.22974	-1191.84094	282.99356	2030.80737	-1443.99207	170.19864	2174.83203	-1422.16589	53.83482	2036.26270	-1296.10840	52.42130	2012.95886	-1160.19885	54.90688	1809.47131	-1319.92517	61.43369	1745.31128	-1361.57959	127.88784	1774.60095	-1434.45081	436.78119	2024.06348	-1422.84253	552.41144	2149.41724	-1382.85449	600.40363	2052.46313	-1222.91101	584.15289	1929.20789	-1108.28674	609.25781	1801.61426	-1316.60779	595.65607	1726.94739	-1359.35217	616.72223	1776.28882	-1443.84485	338.55630	2149.42114	-1234.03088	325.78986	2033.39734	-1152.57898	322.77536	1911.58997	-1094.30078	185.22174	1932.13037	-1159.97351	184.03300	1804.16565	-1088.68188	464.49182	1807.93591	-1065.38818	173.30505	1775.35413	-1228.12439	504.79480	1786.16296	-1203.89832	349.12244	1756.73889	-1313.87769	140.12926	1531.30347	-1209.24292	153.86559	1387.72803	-1301.58362	209.33293	1056.50049	-1176.83374	297.82886	1007.33551	-1089.11755	202.31883	983.68225	-1208.66138	240.83795	944.26373	-1333.16284	554.99445	1607.94348	-1272.95642	550.65125	1448.16736	-1326.90015	490.48425	1089.13647	-1312.04736	387.74634	1042.85486	-1267.61230	508.25702	961.79834	-1343.12915	490.87674	929.98889	-1464.99268	4200.88672	32.98239	-4241.22314	-3735.34668	-12.55321	-4194.52148	-3781.63452	-15.65436	4946.24512	4162.89111	20.99097	4908.47607	
541	9.000	371.87302	2258.65161	-1676.32715	383.70227	2097.09399	-1628.33105	281.37195	2151.81079	-1595.46960	466.32309	2160.92188	-1587.26807	352.24789	2198.12451	-1318.07410	359.33548	1887.92688	-1411.45105	459.37088	2105.43579	-1204.46997	282.68665	2017.55640	-1455.46423	168.57063	2159.87671	-1431.63477	54.53943	2018.24548	-1306.26062	53.82341	1994.00806	-1170.42932	60.03845	1790.40112	-1330.40442	67.92759	1726.14807	-1371.66455	132.44409	1756.87183	-1445.82617	436.81009	2012.15686	-1435.97363	551.03296	2138.67725	-1396.15137	601.02618	2044.53223	-1235.36597	588.51990	1922.41833	-1119.47815	609.28259	1792.48047	-1327.13708	594.36517	1717.27832	-1369.46204	613.01154	1766.48352	-1454.79895	339.11383	2135.19409	-1245.95557	329.82175	2018.45667	-1164.74438	328.58481	1896.30334	-1107.49060	188.85788	1918.73450	-1170.39453	189.27754	1791.63220	-1100.27869	469.77005	1789.28784	-1081.91089	176.15152	1764.75500	-1239.76038	507.41672	1768.24438	-1220.95361	350.11859	1743.82751	-1329.06531	138.77136	1521.60364	-1226.70068	151.20856	1378.79492	-1322.25415	209.67950	1060.62463	-1183.95593	299.86380	1016.10327	-1095.26599	202.59045	986.80383	-1211.61328	239.49869	940.43964	-1333.34094	553.77075	1576.96631	-1282.26990	546.57977	1414.06177	-1325.59814	495.45215	1044.02258	-1326.36072	395.71890	996.67480	-1285.62610	513.60913	913.34393	-1363.63928	494.44757	883.84222	-1486.05933	4200.88086	32.94911	-4241.21582	-3735.35547	-12.55544	-4194.48340	-3781.55542	-15.52409	4946.16309	4162.79297	21.16628	4908.48535	
542	9.017	369.76245	2244.48242	-1687.95447	381.90329	2082.82837	-1640.10864	279.84427	2137.81958	-1606.46655	464.97150	2147.19824	-1599.25281	352.12796	2183.99927	-1329.17957	360.60608	1876.12646	-1425.11902	460.36353	2092.32837	-1217.16125	283.00119	2005.28918	-1467.42517	168.06458	2145.96313	-1440.63269	55.04329	2003.92261	-1315.18286	55.08745	1979.36963	-1179.41345	64.60569	1776.00793	-1339.54578	74.20934	1711.50317	-1380.76074	137.49022	1743.87964	-1455.42993	437.47070	2001.00476	-1449.66028	550.23700	2128.66650	-1409.41345	602.00458	2037.67139	-1247.78113	593.14130	1916.81018	-1130.51807	610.17133	1785.73950	-1338.28723	593.82227	1710.37683	-1381.05469	609.44714	1760.22778	-1466.77966	340.63940	2120.49268	-1257.70813	334.50919	2002.73975	-1177.59229	334.66315	1880.70715	-1121.49341	192.95189	1904.84460	-1181.87891	194.85722	1778.38025	-1113.05420	475.49158	1770.74121	-1099.45789	179.84642	1753.11743	-1252.51611	510.36560	1750.75061	-1238.77710	351.88284	1730.54163	-1345.31970	137.08432	1511.96570	-1245.26135	147.45390	1370.80933	-1344.97302	210.29669	1066.17395	-1193.85229	302.33603	1028.33679	-1105.61914	203.28896	990.67639	-1216.37256	238.46156	934.82953	-1333.00513	552.29163	1546.62463	-1293.23694	542.64197	1381.31091	-1325.24792	499.55869	1003.52277	-1333.63220	403.09494	956.03894	-1294.21753	517.39746	870.17725	-1375.20520	495.04538	840.67297	-1496.83386	4200.87549	32.94091	-4241.21875	-3735.35449	-12.54999	-4194.45703	-3781.49487	-15.39575	4946.12354	4162.69922	21.31989	4908.46582	
543	9.033	368.11591	2230.97290	-1698.86719	380.63806	2069.01416	-1651.79834	278.86545	2124.14355	-1617.07068	464.19135	2133.85449	-1610.97864	352.85083	2169.22729	-1339.96277	362.16422	1864.15967	-1439.28809	462.14038	2078.44141	-1230.04187	283.74985	1993.02478	-1479.71167	168.64307	2132.31909	-1449.36206	55.53782	1992.09460	-1323.13184	56.31250	1967.75415	-1187.42175	68.46151	1765.00684	-1347.67175	79.91895	1700.19226	-1389.24097	142.75142	1734.33801	-1463.61145	438.55829	1989.58716	-1463.68921	550.13873	2118.24561	-1422.90967	603.52051	2030.44714	-1260.54004	597.80737	1910.87781	-1141.78528	611.98932	1779.91052	-1350.29041	594.20770	1704.82397	-1394.18054	606.85162	1755.74805	-1479.81543	343.17160	2104.86353	-1269.35669	339.96762	1986.03650	-1190.93311	341.06177	1864.39038	-1136.05652	197.61102	1890.01721	-1193.92163	200.86459	1763.92529	-1126.47766	481.63721	1752.30664	-1117.64441	184.01851	1739.91675	-1265.79602	513.57257	1733.13708	-1257.18958	354.10205	1716.07751	-1362.06262	135.16508	1502.31934	-1264.47168	142.19101	1364.25403	-1369.50671	211.06006	1072.55786	-1207.60681	305.46423	1043.20593	-1121.85803	204.39059	994.45465	-1223.66699	237.49585	926.78497	-1332.73193	550.50348	1517.73145	-1305.77014	539.20477	1350.63892	-1326.38647	502.24863	967.60577	-1334.39453	408.82269	920.20502	-1294.09680	519.46771	832.94727	-1378.28076	493.34119	801.87585	-1498.29333	4200.87500	32.95050	-4241.23193	-3735.34619	-12.53905	-4194.43945	-3781.45386	-15.30124	4946.11328	4162.64355	21.42730	4908.44678	
544	9.050	367.04538	2217.48438	-1709.14392	380.08762	2055.07886	-1663.38757	278.56970	2110.09009	-1627.40393	464.04593	2120.27490	-1622.47375	354.55801	2153.35767	-1350.66284	363.83240	1851.05603	-1453.68408	464.87997	2063.37573	-1243.25415	284.84006	1979.84143	-1492.06067	170.19194	2118.13599	-1457.98816	56.26129	1981.30151	-1330.50916	57.66664	1957.62671	-1194.90857	71.63776	1755.64685	-1355.12183	84.83229	1690.55469	-1397.32214	147.74323	1726.45508	-1470.85925	439.96042	1976.94238	-1477.83008	550.85266	2106.40845	-1436.92078	605.72864	2021.48743	-1273.97534	602.41193	1903.07947	-1153.70667	614.66870	1773.31042	-1363.37073	595.58575	1698.81042	-1408.73181	605.88379	1750.95776	-1493.89380	346.68411	2088.00708	-1280.99536	346.15082	1968.23230	-1204.59033	347.66656	1846.95532	-1150.94116	202.82919	1873.89124	-1206.05151	207.19049	1747.86719	-1140.09448	488.00748	1733.85669	-1136.06104	188.23228	1724.83618	-1279.12036	516.82257	1714.80786	-1275.99426	356.38736	1699.93848	-1378.80078	133.31905	1492.14209	-1283.39539	135.53197	1358.79675	-1394.65955	211.76907	1078.25330	-1225.82263	309.07013	1058.15759	-1145.14001	205.73390	996.29950	-1234.24365	236.39980	915.66284	-1333.82910	548.48132	1490.40234	-1319.39856	536.35040	1322.07214	-1329.28931	503.11438	935.85663	-1329.86987	412.13989	887.96216	-1286.76587	519.73138	801.85742	-1374.36230	490.02264	769.01215	-1492.67932	4200.87793	32.96963	-4241.24756	-3735.33862	-12.52987	-4194.42920	-3781.43457	-15.26034	4946.11914	4162.63818	21.48820	4908.45117	
